# xmcd CD database file
#
# Track frame offsets:
#	150
#	19752
#	35368
#	52058
#	56681
#	73830
#	91612
#	104212
#	119028
#	136224
#	155020
#	174539
#	191930
#	210087
#
# Disc length: 3065 seconds
#
# Revision: 0
# Processed by: cddbd v1.5.2PL0 Copyright (c) Steve Scherf et al.
# Submitted via: CDex 1.51
#
DISCID=ce0bf70e
DTITLE=Zac Brown Band - The Foundation
DYEAR=2009
DGENRE=Country
TTITLE0=Toes
TTITLE1=Whatever It Is
TTITLE2=Where the Boat Leaves From
TTITLE3=Violin Intro to Free
TTITLE4=Free
TTITLE5=Chicken Fried
TTITLE6=Mary
TTITLE7=Different Kind of Fine
TTITLE8=Highway 20 Ride
TTITLE9=It's Not OK
TTITLE10=Jolene
TTITLE11=Sic 'Em On a Chicken
TTITLE12=Martin (Live In Atlanta)
TTITLE13=Let It Go (Live In Atlanta)
EXTD=YEAR: 2009
EXTT0=
EXTT1=
EXTT2=
EXTT3=
EXTT4=
EXTT5=
EXTT6=
EXTT7=
EXTT8=
EXTT9=
EXTT10=
EXTT11=
EXTT12=
EXTT13=
PLAYORDER=
